<svg width="1235" height="30" viewBox="0 0 1235 30" fill="none" xmlns="http://www.w3.org/2000/svg">
<path d="M624.536 15C625.574 15 626.458 15.3655 627.189 16.0965C627.92 16.8276 628.286 17.7121 628.286 18.75V25.1786C628.286 25.3348 628.235 25.4632 628.135 25.5636C628.035 25.6641 627.906 25.7143 627.75 25.7143H626.143V26.7857C626.143 27.6786 625.83 28.4375 625.205 29.0625C624.58 29.6875 623.821 30 622.929 30C622.036 30 621.277 29.6875 620.652 29.0625C620.027 28.4375 619.714 27.6786 619.714 26.7857V25.7143H602.571V26.7857C602.571 27.6786 602.259 28.4375 601.634 29.0625C601.009 29.6875 600.25 30 599.357 30C598.464 30 597.705 29.6875 597.08 29.0625C596.455 28.4375 596.143 27.6786 596.143 26.7857V25.7143H594.536C594.379 25.7143 594.251 25.6641 594.151 25.5636C594.05 25.4632 594 25.3348 594 25.1786V18.75C594 17.7121 594.366 16.8276 595.097 16.0965C595.828 15.3655 596.712 15 597.75 15H598.219L599.977 7.98549C600.233 6.93638 600.814 6.05748 601.718 5.34877C602.622 4.64007 603.621 4.28571 604.714 4.28571H606.857V0.535714C606.857 0.379464 606.907 0.251116 607.008 0.15067C607.108 0.0502232 607.237 0 607.393 0H614.893C615.049 0 615.177 0.0502232 615.278 0.15067C615.378 0.251116 615.429 0.379464 615.429 0.535714V4.28571H617.571C618.665 4.28571 619.664 4.64007 620.568 5.34877C621.472 6.05748 622.052 6.93638 622.309 7.98549L624.067 15H624.536ZM599.357 23.0357C600.094 23.0357 600.724 22.7734 601.249 22.2489C601.773 21.7243 602.036 21.0938 602.036 20.3571C602.036 19.6205 601.773 18.99 601.249 18.4654C600.724 17.9408 600.094 17.6786 599.357 17.6786C598.621 17.6786 597.99 17.9408 597.465 18.4654C596.941 18.99 596.679 19.6205 596.679 20.3571C596.679 21.0938 596.941 21.7243 597.465 22.2489C597.99 22.7734 598.621 23.0357 599.357 23.0357ZM602.638 15H619.647L618.157 9.02344C618.135 8.93415 618.057 8.8365 617.923 8.73047C617.789 8.62444 617.672 8.57143 617.571 8.57143H604.714C604.614 8.57143 604.497 8.62444 604.363 8.73047C604.229 8.8365 604.151 8.93415 604.128 9.02344L602.638 15ZM622.929 23.0357C623.665 23.0357 624.296 22.7734 624.82 22.2489C625.345 21.7243 625.607 21.0938 625.607 20.3571C625.607 19.6205 625.345 18.99 624.82 18.4654C624.296 17.9408 623.665 17.6786 622.929 17.6786C622.192 17.6786 621.561 17.9408 621.037 18.4654C620.512 18.99 620.25 19.6205 620.25 20.3571C620.25 21.0938 620.512 21.7243 621.037 22.2489C621.561 22.7734 622.192 23.0357 622.929 23.0357Z" fill="#FFAD00"/>
<line y1="14" x2="565" y2="14" stroke="#FFAD00" stroke-width="2" stroke-dasharray="5 5"/>
<line x1="670" y1="14" x2="1235" y2="14" stroke="#FFAD00" stroke-width="2" stroke-dasharray="5 5"/>
</svg>
